<?xml version="1.0" encoding="utf-8"?>
<!-- Generator: Adobe Illustrator 17.1.0, SVG Export Plug-In . SVG Version: 6.00 Build 0)  -->
<!DOCTYPE svg PUBLIC "-//W3C//DTD SVG 1.1//EN" "http://www.w3.org/Graphics/SVG/1.1/DTD/svg11.dtd">
<svg version="1.1" id="Layer_1" xmlns="http://www.w3.org/2000/svg" xmlns:xlink="http://www.w3.org/1999/xlink" x="0px" y="0px"
	 viewBox="0 0 400 105" enable-background="new 0 0 400 105" xml:space="preserve">
<path fill="#FFFFFF" d="M356.557,11.264c-18.534,0-33.836,10.656-39.985,25.861V12.943h-27.328l-16.8,27.552l-16.8-27.552h-27.328
	v23.908c-6.109-15.1-21.258-25.587-39.759-25.587c-16.159,0-29.86,8.101-37.183,20.252V12.943H85.743v62.07L59.536,12.384H33.552
	L0.512,91.343h28l4.032-10.527h27.44l4.144,10.527h21.615h6.833h19.375V65.695h35.967c5.618,16.03,21.212,27.328,40.416,27.328
	c18.533,0,33.834-10.654,39.983-25.858v24.177h25.648V52.479l18.032,27.888h0.448l18.032-27.888v38.863h26.096V67.432
	c6.108,15.103,21.258,25.591,39.761,25.591c24.192,0,42.896-18.145,42.896-40.88v-0.225
	C399.229,29.184,380.749,11.264,356.557,11.264z M39.152,62.223l7.168-19.039l7.168,19.039H39.152z M111.951,35.343h37.394
	c-1.448,3.129-2.499,6.47-3.097,9.969h-34.297V35.343z M204.797,52.367c0,9.184-6.272,17.472-16.24,17.472
	c-10.08,0-16.464-8.399-16.464-17.695v-0.225c0-9.184,6.271-17.472,16.24-17.472c10.08,0,16.464,8.4,16.464,17.696V52.367z
	 M372.797,52.367c0,9.184-6.272,17.472-16.24,17.472c-10.08,0-16.464-8.399-16.464-17.695v-0.225c0-9.184,6.272-17.472,16.24-17.472
	c10.08,0,16.464,8.4,16.464,17.696V52.367z"/>
</svg>
