<?xml version="1.0" standalone="no"?>
<!DOCTYPE svg PUBLIC "-//W3C//DTD SVG 1.1//EN" "http://www.w3.org/Graphics/SVG/1.1/DTD/svg11.dtd" >
<svg xmlns="http://www.w3.org/2000/svg">
<metadata>
Created by FontPrep 20130207 at Mon Mar 31 23:55:46 2014
 By Natty Coleman
Copyright 1990-1993 Bitstream Inc.  All rights reserved.
</metadata>
<defs>
<font id="022c20d3c2b5208bc4ff771e4b5afcc9" horiz-adv-x='1024' >
  <font-face 
    font-family="AlternateGothicNo2BT-Regular"
    font-weight="400"
    font-stretch="condensed"
    units-per-em="2048"
    panose-1="2 11 6 8 2 2 2 5 2 4"
    ascent="1638"
    descent="-410"
    x-height="1067"
    cap-height="1446"
    bbox="-276 -483 2048 1849"
    underline-thickness="133"
    underline-position="-102"
    unicode-range="U+0020-F002"
  />
<missing-glyph horiz-adv-x="1229" 
d="M217 -248h795v1577h-795v-1577zM102 -362v1806h1024v-1806h-1024z" />
    <glyph glyph-name=".notdef" horiz-adv-x="1229" 
d="M217 -248h795v1577h-795v-1577zM102 -362v1806h1024v-1806h-1024z" />
    <glyph glyph-name=".null" horiz-adv-x="0" 
 />
    <glyph glyph-name="nonmarkingreturn" horiz-adv-x="416" 
 />
    <glyph glyph-name="space" unicode=" " horiz-adv-x="416" 
 />
    <glyph glyph-name="exclam" unicode="!" horiz-adv-x="440" 
d="M113 0v227h213v-227h-213zM152 418l-48 1028h230l-47 -1028h-135z" />
    <glyph glyph-name="quotedbl" unicode="&#x22;" horiz-adv-x="643" 
d="M86 1436h164v-557h-164v557zM395 1436h164v-557h-164v557z" />
    <glyph glyph-name="numbersign" unicode="#" horiz-adv-x="1575" 
d="M735 1460h191l-154 -436h250l156 436h190l-154 -436h291l-59 -172h-293l-90 -252h309l-61 -172h-307l-156 -434h-191l156 434h-252l-158 -434h-190l156 434h-299l61 172h297l90 252h-315l61 172h316zM709 852l-91 -254h256l91 254h-256z" />
    <glyph glyph-name="dollar" unicode="$" horiz-adv-x="831" 
d="M80 1102q0 134 76 240t194 131v176h121v-174q149 -21 248 -164l-131 -133q-45 78 -117 99v-439q162 -119 228.5 -230.5t66.5 -261.5t-82 -256.5t-213 -122.5v-172h-121v174q-102 19 -175 74.5t-107 140.5l149 135q40 -102 133 -145v479q-139 102 -204.5 208.5
t-65.5 240.5zM565 361q0 126 -94 210v-399q42 14 68 68.5t26 120.5zM350 1270q-76 -48 -76 -152t76 -186v338z" />
    <glyph glyph-name="percent" unicode="%" horiz-adv-x="1061" 
d="M244 707q-221 0 -221 266v260q0 114 58.5 178t162.5 64t162.5 -66t58.5 -180v-260q0 -126 -57.5 -194t-163.5 -68zM244 844q63 0 63 88v332q0 34 -17.5 54.5t-45.5 20.5t-47 -21.5t-19 -53.5v-332q0 -39 19 -63.5t47 -24.5zM109 0l653 1446h176l-653 -1446h-176z
M1036 231q0 -126 -57 -194t-165 -68t-164 68t-56 199v260q0 113 60 177t164 64t161 -65.5t57 -179.5v-261zM815 104q66 0 66 91v329q0 34 -18.5 56t-46.5 22t-46 -21.5t-18 -54.5v-331q0 -40 18 -65.5t45 -25.5z" />
    <glyph glyph-name="ampersand" unicode="&#x26;" horiz-adv-x="903" 
d="M51 313q0 190 172 406q-100 231 -100 398q0 168 78.5 263t198.5 95t188.5 -81.5t68.5 -199.5t-39 -212t-167 -271q60 -131 149 -273q48 90 78 246l186 -49q-21 -180 -131 -367q45 -63 111 -84v-217q-134 10 -234 121q-101 -121 -245 -121t-229 96t-85 250zM254 346
q0 -75 33 -113t77 -38q77 0 115 57q-71 84 -164 270q-61 -101 -61 -176zM477 1180q0 64 -23.5 103.5t-61.5 39.5t-63.5 -49.5t-25.5 -119.5q0 -131 62 -265q112 166 112 291z" />
    <glyph glyph-name="quotesingle" unicode="'" horiz-adv-x="334" 
d="M86 1436h164v-557h-164v557z" />
    <glyph glyph-name="parenleft" unicode="(" horiz-adv-x="563" 
d="M102 654q0 441 236 821h192q-223 -366 -223 -799q0 -434 230 -807l-142 -86q-293 430 -293 871z" />
    <glyph glyph-name="parenright" unicode=")" horiz-adv-x="563" 
d="M258 677q0 429 -225 798h194q234 -375 234 -818t-293 -874l-141 86q231 379 231 808z" />
    <glyph glyph-name="asterisk" unicode="*" horiz-adv-x="788" 
d="M393 1055l-127 -248l-129 96l197 197l-273 45l50 151l245 -127l-37 277h150l-37 -277l246 127l49 -151l-272 -45l196 -197l-129 -96z" />
    <glyph glyph-name="plus" unicode="+" horiz-adv-x="1706" 
d="M768 1221h170v-527h514v-166h-514v-528h-170v528h-514v166h514v527z" />
    <glyph glyph-name="comma" unicode="," horiz-adv-x="440" 
d="M115 0v227h213v-227l-115 -256h-98l73 256h-73z" />
    <glyph glyph-name="hyphen" unicode="-" horiz-adv-x="635" 
d="M80 457v151h475v-151h-475z" />
    <glyph glyph-name="period" unicode="." horiz-adv-x="440" 
d="M115 0v227h213v-227h-213z" />
    <glyph glyph-name="slash" unicode="/" horiz-adv-x="500" 
d="M-154 -190l586 1665h162l-586 -1665h-162z" />
    <glyph glyph-name="zero" unicode="0" horiz-adv-x="831" 
d="M84 1112q0 171 89.5 268t244.5 97t243.5 -100t88.5 -271v-741q0 -190 -87 -293t-248 -103t-246 103t-85 299v741zM301 309q0 -61 32.5 -98t84.5 -37t82.5 36t31.5 99v846q0 51 -32 83t-83 32t-83.5 -32t-32.5 -81v-848z" />
    <glyph glyph-name="one" unicode="1" horiz-adv-x="530" 
d="M387 1446v-1446h-221v1122h-176v146q169 59 248 178h149z" />
    <glyph glyph-name="two" unicode="2" horiz-adv-x="809" 
d="M516 1106q0 174 -108 174q-54 0 -80.5 -45t-28.5 -155l-2 -54h-217v27q0 201 88.5 311.5t238.5 110.5t233 -93.5t83 -251.5t-84.5 -350t-337.5 -571h404v-209h-644v209q455 627 455 897z" />
    <glyph glyph-name="three" unicode="3" horiz-adv-x="762" 
d="M377 1473q291 0 291 -410q0 -127 -30 -200t-95 -111q82 -40 116.5 -116.5t34.5 -225.5q0 -214 -79 -326.5t-233 -112.5t-239.5 107.5t-85.5 302.5v37h211v-60q0 -182 105 -182q62 0 90.5 49t28.5 179t-41 187.5t-144 57.5h-28v203l34 2q84 0 121 51t37 161t-22.5 155
t-74.5 45t-77 -37t-25 -95t2 -81h-211v12q0 193 83 300.5t231 107.5z" />
    <glyph glyph-name="four" unicode="4" horiz-adv-x="817" 
d="M51 352v191l371 903h209v-903h135v-191h-135v-352h-209v352h-371zM422 543v528l-180 -528h180z" />
    <glyph glyph-name="five" unicode="5" horiz-adv-x="786" 
d="M486 991q104 0 161.5 -79t57.5 -226v-367q0 -162 -86 -256t-234 -94t-224.5 99.5t-76.5 291.5v43h199v-73q0 -164 116 -164q49 0 76 37t27 106v369q0 62 -22.5 90.5t-71.5 28.5q-88 0 -123 -117l-183 8l25 758h545l8 -209h-377l-18 -340q97 94 201 94z" />
    <glyph glyph-name="six" unicode="6" horiz-adv-x="831" 
d="M513 893q117 0 181 -73.5t64 -207.5v-247q0 -189 -88 -292.5t-249 -103.5t-246 103t-85 299v741q0 171 91 268t245 97t243 -100.5t89 -270.5v-45h-219v94q0 51 -32.5 83t-82.5 32t-82.5 -31.5t-32.5 -81.5v-356q87 92 204 92zM442 702q-77 0 -133 -94v-299q0 -61 33 -98
t85 -37t82 36t30 99v281q0 53 -26 82.5t-71 29.5z" />
    <glyph glyph-name="seven" unicode="7" horiz-adv-x="649" 
d="M12 1237v209h606v-158l-270 -1288h-215l266 1237h-387z" />
    <glyph glyph-name="eight" unicode="8" horiz-adv-x="762" 
d="M82 1098q0 184 77 280.5t223 96.5t222 -96.5t76 -278.5q0 -242 -119 -332q141 -74 141 -379q0 -204 -82 -312t-237 -108q-324 0 -324 439q0 269 144 362q-121 86 -121 328zM383 174q61 0 86 53t25 184t-24 184.5t-86 53.5t-89 -47.5t-27 -181.5t27 -190t88 -56zM382 879
q55 0 77 46.5t22 164.5t-21.5 164t-77.5 46t-78.5 -45t-22.5 -165t23 -165.5t78 -45.5z" />
    <glyph glyph-name="nine" unicode="9" horiz-adv-x="831" 
d="M346 563q-283 0 -283 457t345 457q161 0 246 -103t85 -299v-741q0 -171 -90 -268t-245 -97t-243.5 100t-88.5 271v45h219v-96q0 -52 31.5 -83.5t81.5 -31.5t83 32t33 83v356q-78 -82 -174 -82zM401 750q79 0 119 88v299q0 62 -32 97.5t-87 35.5q-110 0 -110 -148v-202
q0 -170 110 -170z" />
    <glyph glyph-name="colon" unicode=":" horiz-adv-x="440" 
d="M115 408v227h213v-227h-213zM115 0v227h213v-227h-213z" />
    <glyph glyph-name="semicolon" unicode=";" horiz-adv-x="440" 
d="M115 0v227h213v-227l-115 -256h-98l73 256h-73zM115 408v227h213v-227h-213z" />
    <glyph glyph-name="less" unicode="&#x3c;" horiz-adv-x="1706" 
d="M1442 1176v-185l-934 -381l934 -381v-182l-1178 483v160z" />
    <glyph glyph-name="equal" unicode="=" horiz-adv-x="1706" 
d="M254 901h1198v-168h-1198v168zM254 487h1198v-165h-1198v165z" />
    <glyph glyph-name="greater" unicode="&#x3e;" horiz-adv-x="1706" 
d="M264 1176l1178 -486v-160l-1178 -483v182l934 381l-934 381v185z" />
    <glyph glyph-name="question" unicode="?" horiz-adv-x="631" 
d="M182 0v238h215v-238h-215zM401 1182q0 44 -23 71t-61 27t-70.5 -36.5t-66.5 -117.5l-174 72q80 277 307 277q134 0 211.5 -75t77.5 -195t-86 -272t-114 -223t-27 -210l1 -74h-173l-2 59q0 208 63 375q23 62 80 170t57 152z" />
    <glyph glyph-name="at" unicode="@" horiz-adv-x="2048" 
d="M1049 883q-127 0 -217.5 -128.5t-90.5 -310.5q0 -98 45.5 -151t131.5 -53t160 66.5t100 172.5l55 228q-14 84 -61.5 130t-122.5 46zM98 522q0 334 205 586q300 365 813 365q346 0 590 -189t244 -520q0 -162 -65 -302t-195 -244t-308 -105q-106 0 -157 40.5t-51 125.5v4
q-55 -87 -128 -127.5t-176 -40.5q-152 0 -232.5 86.5t-80.5 249.5q0 233 138 395t322 162t259 -142l55 107h154l-148 -586l-5 -23q-4 -18 -3 -40q0 -24 26.5 -47t73.5 -23t104 30.5t117 95.5t98 166.5t38 215.5q0 253 -187 411t-477 158t-483 -125q-181 -113 -279 -291
t-98 -395q0 -312 209.5 -499t553.5 -187t620 191l67 -99q-299 -227 -679 -227t-627 190q-308 234 -308 633z" />
    <glyph glyph-name="A" unicode="A" horiz-adv-x="791" 
d="M307 518h170l-76 604h-14zM12 0l238 1446h291l237 -1446h-229l-45 313h-225l-48 -313h-219z" />
    <glyph glyph-name="B" unicode="B" horiz-adv-x="868" 
d="M801 387q0 -198 -87 -292.5t-270 -94.5h-329v1446h295q178 0 275 -98.5t97 -278.5q0 -214 -155 -330q174 -100 174 -352zM336 209h96q72 0 105.5 50.5t33.5 162.5t-37.5 162.5t-125.5 50.5h-72v-426zM336 844h90q61 0 95 52t34 150t-34.5 144.5t-112.5 46.5h-72v-393z
" />
    <glyph glyph-name="C" unicode="C" horiz-adv-x="850" 
d="M430 168q115 0 115 151v197h229v-151q0 -190 -89.5 -293t-256.5 -103t-253.5 102t-86.5 300v741q0 171 93 268t253 97t250 -99.5t90 -271.5v-139h-229v159q0 150 -115 150t-115 -150v-807q0 -151 115 -151z" />
    <glyph glyph-name="D" unicode="D" horiz-adv-x="881" 
d="M115 0v1446h317q184 0 272.5 -97t88.5 -300v-646q0 -211 -84 -307t-267 -96h-327zM449 213q116 0 116 152v696q0 89 -43 130.5t-135 41.5h-51v-1020h113z" />
    <glyph glyph-name="E" unicode="E" horiz-adv-x="754" 
d="M115 0v1446h581v-209h-358v-379h258v-209h-258v-432h358v-217h-581z" />
    <glyph glyph-name="F" unicode="F" horiz-adv-x="684" 
d="M115 0v1446h581v-209h-358v-379h258v-209h-258v-649h-223z" />
    <glyph glyph-name="G" unicode="G" horiz-adv-x="852" 
d="M88 371v741q0 171 93 268t254 97q325 0 325 -371v-133h-215v153q0 150 -115 150t-115 -150v-807q0 -151 115 -151t115 151v226h-135v184h350v-729h-107l-43 100q-72 -131 -218 -131t-225 103t-79 299z" />
    <glyph glyph-name="H" unicode="H" horiz-adv-x="897" 
d="M115 1446h221v-590h223v590h223v-1446h-223v647h-223v-647h-221v1446z" />
    <glyph glyph-name="I" unicode="I" horiz-adv-x="451" 
d="M115 0v1446h227v-1446h-227z" />
    <glyph glyph-name="J" unicode="J" horiz-adv-x="473" 
d="M150 340v1106h223v-1063q0 -195 -64 -289t-196 -94h-125v223l45 -4q56 0 86.5 31t30.5 90z" />
    <glyph glyph-name="K" unicode="K" horiz-adv-x="840" 
d="M115 0v1446h223v-610q19 67 31 94l221 516h221l-248 -494l277 -952h-232l-188 727l-82 -164v-563h-223z" />
    <glyph glyph-name="L" unicode="L" horiz-adv-x="692" 
d="M115 0v1446h221v-1237h346v-209h-567z" />
    <glyph glyph-name="M" unicode="M" horiz-adv-x="1149" 
d="M322 913v-913h-207v1446h297l145 -801q18 -96 18 -217q0 91 21 215l139 803h301v-1446h-209v913q0 80 17 252q-5 -29 -17 -103t-18 -102l-182 -960h-111l-174 961q-10 58 -21.5 127t-13.5 77q15 -159 15 -252z" />
    <glyph glyph-name="N" unicode="N" horiz-adv-x="938" 
d="M322 756v-756h-207v1446h200l283 -864q18 -57 43 -154q-25 143 -25 195v823h209v-1446h-209l-272 799q-25 62 -47 157q25 -158 25 -200z" />
    <glyph glyph-name="O" unicode="O" horiz-adv-x="862" 
d="M88 1112q0 171 93 268t253 97t250 -99.5t90 -271.5v-741q0 -190 -89.5 -293t-255.5 -103t-253.5 102.5t-87.5 299.5v741zM430 168q115 0 115 151v807q0 150 -115 150t-115 -150v-807q0 -151 115 -151z" />
    <glyph glyph-name="P" unicode="P" horiz-adv-x="829" 
d="M113 0v1446h327q183 0 265.5 -99t82.5 -311t-80 -330t-219 -118h-153v-588h-223zM336 795h88q78 0 107.5 47.5t29.5 175.5t-31 173.5t-114 45.5h-80v-442z" />
    <glyph glyph-name="Q" unicode="Q" horiz-adv-x="860" 
d="M836 123v-221h-25q-151 0 -213 116q-84 -49 -182 -49q-156 0 -242 105t-86 297v741q0 171 93 268t253 97t250 -99.5t90 -271.5v-741q0 -127 -30 -198q23 -44 81 -44h11zM430 168q115 0 115 151v807q0 150 -115 150t-115 -150v-807q0 -151 115 -151z" />
    <glyph glyph-name="R" unicode="R" horiz-adv-x="854" 
d="M336 608v-608h-223v1446h327q184 0 266 -99t82 -319q0 -136 -33 -220t-108 -136l164 -672h-231l-138 608h-106zM336 1237v-420h88q77 0 107 46.5t30 166.5t-31.5 163.5t-113.5 43.5h-80z" />
    <glyph glyph-name="S" unicode="S" horiz-adv-x="803" 
d="M545 324q0 113 -180 292l-21 21q-176 176 -226 270.5t-50 200.5q0 153 100.5 257.5t243.5 104.5t233 -96.5t103 -261.5l-218 -31q-6 97 -35 139t-85 42t-88.5 -36.5t-32.5 -97.5q0 -126 210 -329q171 -171 217 -262t46 -209q0 -158 -98 -259.5t-256 -101.5t-255.5 106
t-105.5 294l213 32q12 -215 148 -215q61 0 99 38.5t38 101.5z" />
    <glyph glyph-name="T" unicode="T" horiz-adv-x="662" 
d="M-12 1237v209h686v-209h-232v-1237h-223v1237h-231z" />
    <glyph glyph-name="U" unicode="U" horiz-adv-x="885" 
d="M98 1446h228v-1120q0 -63 32.5 -100.5t85.5 -37.5t83 37t30 101v1120h227v-1081q0 -191 -88.5 -293.5t-254.5 -102.5t-254.5 103t-88.5 299v1075z" />
    <glyph glyph-name="V" unicode="V" horiz-adv-x="786" 
d="M395 289v-26q6 190 25 327l129 856h219l-256 -1446h-233l-259 1446h218l133 -856q24 -151 24 -301z" />
    <glyph glyph-name="W" unicode="W" horiz-adv-x="1126" 
d="M338 362v-28q8 216 18 284l111 828h190l119 -856q15 -107 15 -256q0 130 18 284l92 828h211l-225 -1446h-187l-122 839q-15 105 -15 257q-12 -236 -18 -284l-119 -812h-186l-228 1446h213l99 -857q14 -130 14 -227z" />
    <glyph glyph-name="X" unicode="X" horiz-adv-x="764" 
d="M-4 0l264 735l-260 711h231l136 -426h10l143 426h228l-252 -692l274 -754h-233l-146 471h-8l-158 -471h-229z" />
    <glyph glyph-name="Y" unicode="Y" horiz-adv-x="702" 
d="M465 0h-223v573l-267 873h226l145 -578h14l138 578h227l-260 -846v-600z" />
    <glyph glyph-name="Z" unicode="Z" horiz-adv-x="774" 
d="M63 0v223l400 1000h-367v223h609v-209l-404 -1014h404v-223h-642z" />
    <glyph glyph-name="bracketleft" unicode="[" horiz-adv-x="563" 
d="M141 -186v1661h355v-185h-154v-1290h154v-186h-355z" />
    <glyph glyph-name="backslash" unicode="\" horiz-adv-x="500" 
d="M653 -190h-164l-585 1665h164z" />
    <glyph glyph-name="bracketright" unicode="]" horiz-adv-x="563" 
d="M422 -186h-352v186h153v1290h-153v185h352v-1661z" />
    <glyph glyph-name="asciicircum" unicode="^" horiz-adv-x="2048" 
d="M915 1460h218l495 -561h-207l-397 397l-399 -397h-207z" />
    <glyph glyph-name="underscore" unicode="_" 
d="M0 -311h1024v-172h-1024v172z" />
    <glyph glyph-name="grave" unicode="`" 
d="M467 1167l-188 222h251l99 -222h-162z" />
    <glyph glyph-name="a" unicode="a" horiz-adv-x="729" 
d="M221 -14q-174 0 -174 252q0 130 83.5 234t307.5 224v115q0 98 -67 98q-42 0 -66 -24t-24 -66v-59h-201l-2 28q0 134 85 220t217 86q263 0 263 -334v-455q0 -225 19 -305h-199q-15 40 -19 120q-98 -134 -223 -134zM252 262q0 -94 61 -94q35 0 69.5 26.5t55.5 71.5v277
q-106 -69 -146 -128t-40 -153z" />
    <glyph glyph-name="b" unicode="b" horiz-adv-x="741" 
d="M666 221q0 -235 -193 -235q-100 0 -176 96v-82h-201v1446h201v-465q82 100 176 100t143.5 -68.5t49.5 -199.5v-592zM391 154q70 0 70 96v551q0 110 -82 110q-43 0 -82 -43v-665q45 -49 94 -49z" />
    <glyph glyph-name="c" unicode="c" horiz-adv-x="729" 
d="M659 301q0 -330 -297 -330q-132 0 -209 88.5t-77 241.5v471q0 147 82 234.5t216 87.5t209.5 -83t75.5 -231v-84h-204v86q0 67 -20.5 96t-66.5 29t-66.5 -29t-20.5 -96v-475q0 -84 19.5 -116.5t67.5 -32.5t67.5 27.5t19.5 121.5v82h204v-88z" />
    <glyph glyph-name="d" unicode="d" horiz-adv-x="741" 
d="M267 -14q-100 0 -145.5 60t-45.5 175v592q0 131 49 199.5t143 68.5t176 -100v465h199v-1446h-199v84q-77 -98 -177 -98zM281 801v-551q0 -94 69 -94q51 0 94 47v665q-43 45 -82 45q-38 0 -59.5 -29.5t-21.5 -82.5z" />
    <glyph glyph-name="e" unicode="e" horiz-adv-x="729" 
d="M659 301q0 -330 -297 -330q-133 0 -209.5 88t-76.5 242v479q0 139 84 226.5t218 87.5t207.5 -81t73.5 -233v-272h-378v-201q0 -84 19.5 -116.5t67.5 -32.5t67.5 27.5t19.5 121.5v74h204v-80zM281 674h174v108q0 67 -20.5 96t-66.5 29t-66.5 -29t-20.5 -96v-108z" />
    <glyph glyph-name="f" unicode="f" horiz-adv-x="477" 
d="M416 1266q-50 0 -72 -21t-22 -69v-109h127v-166h-127v-901h-199v901h-113v166h113v125q0 254 231 254q59 0 115 -16v-174z" />
    <glyph glyph-name="g" unicode="g" horiz-adv-x="707" 
d="M63 125q0 51 28 92.5t102 95.5q-71 44 -100.5 100.5t-29.5 151.5v213q0 151 71.5 233.5t203.5 82.5t229 -119q44 96 150 106v-173q-32 5 -41 5q-51 0 -76 -41q2 -36 2 -71v-238q0 -139 -66 -213t-190 -74q-49 3 -53 5q-47 -35 -47 -68q0 -46 117 -53q70 -4 112 -10
q130 -19 191 -77.5t61 -162.5q0 -252 -385 -252q-158 0 -246 45t-88 125t64 117t114 57q-123 31 -123 123zM227 -102q0 -41 41 -66t111 -25t119 24.5t49 64.5t-54.5 59t-189.5 20q-76 -36 -76 -77zM246 553q0 -109 87 -109t87 109v248q0 108 -87 108t-87 -108v-248z" />
    <glyph glyph-name="h" unicode="h" horiz-adv-x="756" 
d="M524 1081q140 0 140 -188v-893h-199v805q0 50 -11.5 67t-37.5 17q-55 0 -119 -80v-809h-201v1446h201v-496q113 131 227 131z" />
    <glyph glyph-name="i" unicode="i" horiz-adv-x="393" 
d="M96 0v1067h201v-1067h-201zM96 1247v199h201v-199h-201z" />
    <glyph glyph-name="j" unicode="j" horiz-adv-x="403" 
d="M21 -156q35 0 59 23t24 55v1145h199v-1149q0 -254 -231 -254q-60 0 -113 17v172q27 -9 62 -9zM104 1247v199h199v-199h-199z" />
    <glyph glyph-name="k" unicode="k" horiz-adv-x="711" 
d="M96 0v1446h201v-770l182 391h213l-198 -358l211 -709h-201l-139 528l-68 -125v-403h-201z" />
    <glyph glyph-name="l" unicode="l" horiz-adv-x="393" 
d="M96 0v1446h201v-1446h-201z" />
    <glyph glyph-name="m" unicode="m" horiz-adv-x="1122" 
d="M883 1079q147 0 147 -180v-899h-201v805q0 50 -11.5 67t-37.5 17t-58.5 -22.5t-59.5 -57.5v-809h-185v805q0 49 -12.5 66.5t-40.5 17.5q-61 0 -127 -80v-809h-201v1067h201v-111q103 125 220 125t145 -125q47 58 106.5 90.5t114.5 32.5z" />
    <glyph glyph-name="n" unicode="n" horiz-adv-x="756" 
d="M524 1081q140 0 140 -188v-893h-199v805q0 50 -11.5 67t-37.5 17q-55 0 -119 -80v-809h-201v1067h201v-117q113 131 227 131z" />
    <glyph glyph-name="o" unicode="o" horiz-adv-x="727" 
d="M76 823q0 124 80 197.5t209 73.5t207.5 -77.5t78.5 -199.5v-551q0 -137 -77.5 -215t-209.5 -78t-210 80.5t-78 216.5v553zM281 250q0 -92 81 -92q40 0 63.5 24.5t23.5 67.5v581q0 35 -23.5 56.5t-61.5 21.5t-60.5 -21.5t-22.5 -56.5v-581z" />
    <glyph glyph-name="p" unicode="p" horiz-adv-x="741" 
d="M473 -14q-94 0 -176 100v-422h-201v1403h201v-84q76 98 176 98q193 0 193 -237v-590q0 -131 -49.5 -199.5t-143.5 -68.5zM379 154q82 0 82 112v551q0 50 -16.5 72t-60.5 22t-87 -47v-665q41 -45 82 -45z" />
    <glyph glyph-name="q" unicode="q" horiz-adv-x="741" 
d="M76 844q0 237 191 237q100 0 177 -98v84h199v-1403h-199v422q-82 -100 -176 -100t-143 68.5t-49 199.5v590zM281 817v-551q0 -112 79 -112q41 0 84 45v665q-43 47 -94 47q-69 0 -69 -94z" />
    <glyph glyph-name="r" unicode="r" horiz-adv-x="539" 
d="M463 870q-77 0 -121.5 -46t-44.5 -126v-698h-201v1067h201v-145q76 157 211 157h20v-223q-28 14 -65 14z" />
    <glyph glyph-name="s" unicode="s" horiz-adv-x="686" 
d="M221 332q24 -174 124 -174q49 0 74 25.5t25 68.5q0 83 -202 236q-2 2 -5 4q-101 76 -143.5 148t-42.5 163q0 131 81 211t208 80t203 -74t85 -203l-188 -45q-22 135 -106 135q-40 0 -63 -25.5t-23 -68.5q0 -70 141 -181q38 -31 59 -48q111 -93 152 -163.5t41 -158.5
q0 -132 -81.5 -211.5t-212.5 -79.5t-215 84t-103 234z" />
    <glyph glyph-name="t" unicode="t" horiz-adv-x="545" 
d="M150 225v676h-123v166h123v307h198v-307h148v-166h-148v-657q0 -92 88 -92q19 0 59 10l1 -174q-53 -17 -115 -17q-231 0 -231 254z" />
    <glyph glyph-name="u" unicode="u" horiz-adv-x="756" 
d="M291 248q0 -72 53 -72q22 0 55.5 22.5t61.5 57.5v811h198v-1067h-198v117q-113 -133 -230 -133q-139 0 -139 190v893h199v-819z" />
    <glyph glyph-name="v" unicode="v" horiz-adv-x="614" 
d="M0 1067h184l123 -657h10l101 657h196l-206 -1067h-183z" />
    <glyph glyph-name="w" unicode="w" horiz-adv-x="940" 
d="M666 338q0 113 12 217l78 512h184l-182 -1067h-174l-92 520q-13 64 -19 243q-8 -159 -20 -244l-78 -519h-176l-199 1067h190l80 -511q12 -81 21 -261q2 114 26 260l80 512h152l88 -512q23 -136 29 -260v43z" />
    <glyph glyph-name="x" unicode="x" horiz-adv-x="621" 
d="M-4 0l203 557l-189 510h199l96 -287h10l95 287h204l-196 -506l203 -561h-195l-113 328h-8l-115 -328h-194z" />
    <glyph glyph-name="y" unicode="y" horiz-adv-x="653" 
d="M119 -336q-51 0 -80 3v190h37q84 0 120 37.5t42 130.5l-220 1042h187l123 -684h8l100 684h199l-225 -1141q-28 -141 -95 -201.5t-196 -60.5z" />
    <glyph glyph-name="z" unicode="z" horiz-adv-x="635" 
d="M53 0v178l326 703h-301v186h508v-176l-312 -701h312v-190h-533z" />
    <glyph glyph-name="braceleft" unicode="{" 
d="M436 879v247q0 145 23 206.5t73 91.5t115.5 41.5t181.5 11.5h45v-179l-47 2q-109 0 -147.5 -41.5t-38.5 -173.5v-241q0 -155 -44 -220.5t-159 -93.5q114 -27 158.5 -92.5t44.5 -220.5v-240q0 -132 39.5 -174.5t148.5 -42.5l45 2v-176h-63q-188 0 -272 49q-57 34 -80 96
t-23 203v248q0 144 -52.5 203t-178.5 59l-43 -2v179l43 -3q126 0 178.5 59t52.5 202z" />
    <glyph glyph-name="bar" unicode="|" 
d="M424 1565h178v-2048h-178v2048z" />
    <glyph glyph-name="braceright" unicode="}" 
d="M152 1477h45q207 0 288 -50q57 -33 80 -95t23 -206v-247q0 -144 52 -202.5t179 -58.5l43 3v-179l-43 2q-126 0 -178.5 -59t-52.5 -203v-248q0 -143 -23 -204t-73 -91t-115 -41.5t-180 -11.5h-45v176l45 -2q109 0 147.5 42t38.5 175v240q0 153 45 219t160 94
q-115 28 -160 93.5t-45 220.5v241q0 132 -38 173.5t-146 41.5l-47 -2v179z" />
    <glyph glyph-name="asciitilde" unicode="~" horiz-adv-x="1706" 
d="M563 594q-158 0 -385 -160v187q211 143 387 143q138 0 336 -75q164 -58 250 -58q166 0 379 153v-184q-205 -141 -381 -141q-94 0 -191 35q-25 8 -76 26q-212 74 -319 74z" />
    <glyph glyph-name="nonbreakingspace" unicode="&#xa0;" horiz-adv-x="831" 
 />
    <glyph glyph-name="exclamdown" unicode="&#xa1;" horiz-adv-x="440" 
d="M113 1446h213v-227h-213v227zM152 1028h135l47 -1028h-230z" />
    <glyph glyph-name="cent" unicode="&#xa2;" horiz-adv-x="831" 
d="M125 492v479q0 120 58.5 198t170.5 107v244h123v-240q122 -29 177 -101.5t55 -207.5v-84h-205v86q0 66 -20.5 95.5t-66.5 29.5t-66.5 -29t-20.5 -96v-477q0 -84 19 -116t67 -32t68 27t20 121v84h205v-88q0 -147 -56 -224.5t-176 -99.5v-244h-123v242q-229 61 -229 326z
" />
    <glyph glyph-name="sterling" unicode="&#xa3;" horiz-adv-x="831" 
d="M465 467q0 -142 -82 -258h391v-209h-670v193q82 15 132.5 78t50.5 135t-27 182h-139v184h86q-86 213 -86 356q0 142 90 244.5t239 102.5t234.5 -114.5t85.5 -332.5v-29l-221 1q-5 150 -31 209t-76 59q-98 0 -98 -135q0 -99 72 -361h246v-184h-205v-7q8 -79 8 -114z" />
    <glyph glyph-name="currency" unicode="&#xa4;" horiz-adv-x="1241" 
d="M622.5 1309q141.5 0 249.5 -82l203 203l94 -93l-204 -204q79 -109 79 -249t-79 -247l204 -205l-94 -92l-203 205q-111 -82 -252 -82t-249 82l-203 -205l-92 92l203 205q-80 106 -80 247t80 249l-203 204l92 93l203 -203q110 82 251.5 82zM622 1176q-120 0 -205 -86
t-85 -206t84 -204t206 -84t206.5 84t84.5 204t-85.5 206t-205.5 86z" />
    <glyph glyph-name="yen" unicode="&#xa5;" horiz-adv-x="702" 
d="M707 913v-90h-187l-39 -133h226v-90h-252v-600h-213v600h-248v90h221l-39 133h-182v90h153l-159 533h213l141 -590h14l129 590h220l-158 -533h160z" />
    <glyph glyph-name="brokenbar" unicode="&#xa6;" 
d="M424 1432h178v-758h-178v758zM424 408h178v-758h-178v758z" />
    <glyph glyph-name="section" unicode="&#xa7;" horiz-adv-x="885" 
d="M526 116q0 42 -20.5 79t-89.5 110l-191 201q-93 99 -127.5 162.5t-34.5 141.5t55 140t150 78q-53 65 -73.5 110.5t-20.5 96.5q0 105 74 172.5t178 67.5t176.5 -38t132.5 -118l-129 -98q-52 57 -85.5 78.5t-71.5 21.5t-64.5 -27.5t-26.5 -63.5t25.5 -72.5t93.5 -104.5
l172 -172q90 -91 129 -163.5t39 -144.5q0 -182 -205 -225q99 -103 99 -226q0 -124 -73.5 -193.5t-181.5 -69.5q-205 0 -327 172l131 104q98 -115 164 -115q46 0 74 27t28 69zM242 818q0 -68 141 -208l15 -15q116 -116 169 -116q31 0 51.5 22t20.5 53t-19.5 64.5
t-100.5 122.5t-126 123.5t-77 34.5t-53 -22.5t-21 -58.5z" />
    <glyph glyph-name="dieresis" unicode="&#xa8;" 
d="M285 1178v200h182v-200h-182zM555 1178v200h184v-200h-184z" />
    <glyph glyph-name="copyright" unicode="&#xa9;" horiz-adv-x="1706" 
d="M852 -10q-302 0 -520 218q-219 218 -219 523q0 145 57 280t163 243q212 216 521 216t524 -216t215 -526t-213 -517q-108 -107 -245 -164t-283 -57zM410 287q185 -187 442.5 -187t444.5 184q188 184 188 447t-182 447q-186 184 -449.5 184t-447.5 -187
q-183 -187 -183 -445t187 -443zM639 732q0 -152 57.5 -235t150.5 -83q179 0 202 168h165q-7 -135 -106.5 -217t-267.5 -82t-275.5 119t-107.5 325t109.5 329.5t291.5 123.5q147 0 243 -77t105 -200h-166q-22 154 -200 154q-90 0 -145.5 -86.5t-55.5 -238.5z" />
    <glyph glyph-name="ordfeminine" unicode="&#xaa;" horiz-adv-x="547" 
d="M166 690q-131 0 -131 178q0 92 62.5 164t232.5 156v80q0 69 -51 69q-32 0 -50 -17t-18 -46v-41h-152v20q0 93 63.5 153t160.5 60q200 0 200 -233v-320q0 -152 13 -213l-148 1q-11 24 -14 83q-75 -94 -168 -94zM236 817q56 0 94 70v194q-82 -50 -112 -91t-30 -107t48 -66z
" />
    <glyph glyph-name="guillemotleft" unicode="&#xab;" horiz-adv-x="739" 
d="M350 530l142 318h172l-140 -318l140 -315h-172zM76 530l145 318h172l-139 -318l139 -315h-172z" />
    <glyph glyph-name="logicalnot" unicode="&#xac;" horiz-adv-x="1706" 
d="M254 862h1198v-502h-166v336h-1032v166z" />
    <glyph glyph-name="sfthyphen" unicode="&#xad;" horiz-adv-x="635" 
d="M80 457v151h475v-151h-475z" />
    <glyph glyph-name="registered" unicode="&#xae;" horiz-adv-x="1706" 
d="M336 1260q210 210 521 210t523 -217q213 -217 213 -526t-220 -523t-521 -214q-147 0 -282.5 57.5t-241.5 164.5q-216 219 -215 519q0 147 57.5 284t165.5 245zM414 1182q-191 -195 -191 -451.5t183 -441.5q187 -189 446 -189t446 182t187 445t-180 447
q-190 188 -450.5 188t-440.5 -180zM870 1159q351 0 351 -225q0 -91 -48 -150.5t-137 -78.5l185 -375h-199l-164 346h-129v-346h-178v829h319zM729 1047v-261h117q100 0 146 30t46 98t-48 100.5t-152 32.5h-109z" />
    <glyph glyph-name="macron" unicode="&#xaf;" 
d="M313 1212v131h398v-131h-398z" />
    <glyph glyph-name="degree" unicode="&#xb0;" horiz-adv-x="674" 
d="M337 1460q122 0 209 -87t87 -209t-87 -209t-210 -87t-208 86t-85 210t86 210t208 86zM338 1350q-77 0 -131.5 -54t-54.5 -130t54.5 -131.5t131.5 -55.5t130.5 54.5t53.5 131.5t-53.5 131t-130.5 54z" />
    <glyph glyph-name="plusminus" unicode="&#xb1;" horiz-adv-x="1706" 
d="M768 1206h170v-334h514v-165h-514v-334h-170v334h-514v165h514v334zM254 182h1198v-168h-1198v168z" />
    <glyph glyph-name="twosuperior" unicode="&#xb2;" horiz-adv-x="535" 
d="M340 1241q0 105 -70 105q-71 0 -73 -121v-31h-144v14q0 121 58.5 187.5t157.5 66.5t153.5 -55.5t54.5 -151.5t-57 -213.5t-221 -339.5h266v-124h-424v124q299 376 299 539z" />
    <glyph glyph-name="threesuperior" unicode="&#xb3;" horiz-adv-x="504" 
d="M440 1214q0 -142 -82 -186q55 -24 78 -70t23 -154t-53 -175.5t-154 -67.5t-158 64t-57 182v20h139v-34q0 -109 70 -109q42 0 60 28t18 107t-27 113.5t-94 34.5h-19v123h23q55 0 79.5 31.5t24.5 103.5q0 112 -63 112q-36 0 -52 -22t-16 -72v-35h-139v9q0 115 54.5 179
t152.5 64q192 0 192 -246z" />
    <glyph glyph-name="acute" unicode="&#xb4;" 
d="M559 1167h-162l97 222h254z" />
    <glyph glyph-name="mu" unicode="&#xb5;" horiz-adv-x="1208" 
d="M954 211q0 -68 56 -68q34 0 46 2l-32 -159q-60 -17 -150 -17q-149 0 -149 125v15q-41 -67 -108 -104.5t-146 -37.5q-157 0 -235 109l-99 -506h-229l297 1511h229l-125 -635q-12 -58 -12 -104q0 -96 46.5 -146.5t135.5 -50.5q122 0 193.5 88.5t111.5 292.5l109 555h225
l-145 -739q-19 -93 -19 -131z" />
    <glyph glyph-name="paragraph" unicode="&#xb6;" 
d="M969 1479v-99h-117v-1380h-129v1380h-168v-1380h-131v784q-168 6 -268.5 101t-100.5 249t107 249.5t284 95.5h523z" />
    <glyph glyph-name="glyph121" unicode="&#xb7;" horiz-adv-x="440" 
d="M92 742q0 52 38 90t90 38t90 -38t38 -91t-37.5 -91t-90.5 -38t-90.5 39t-37.5 91z" />
    <glyph glyph-name="cedilla" unicode="&#xb8;" 
d="M418 -256q94 0 94 51q0 60 -111 60h-10l62 145h69l-35 -78h17q95 0 148 -33.5t53 -93.5q0 -131 -240 -131q-82 0 -166 19v77q70 -16 119 -16z" />
    <glyph glyph-name="onesuperior" unicode="&#xb9;" horiz-adv-x="350" 
d="M256 1446v-868h-147v673h-115v86q110 35 164 109h98z" />
    <glyph glyph-name="ordmasculine" unicode="&#xba;" horiz-adv-x="545" 
d="M57 1276q0 87 60.5 138.5t156.5 51.5t155.5 -54.5t59.5 -139.5v-385q0 -96 -57.5 -150.5t-157.5 -54.5t-158.5 55.5t-58.5 151.5v387zM211 874q0 -63 61 -63q30 0 47 17t17 46v408q0 25 -17 40t-45 15t-45.5 -15.5t-17.5 -39.5v-408z" />
    <glyph glyph-name="guillemotright" unicode="&#xbb;" horiz-adv-x="739" 
d="M389 530l-141 -315h-172l139 315l-139 318h172zM664 530l-146 -315h-174l139 315l-139 318h174z" />
    <glyph glyph-name="onequarter" unicode="&#xbc;" horiz-adv-x="1126" 
d="M244 1444v-809h-140v629h-110v82q106 32 156 98h94zM57 0l654 1446h176l-654 -1446h-176zM643 197v106l234 506h131v-506h86v-106h-86v-197h-131v197h-234zM877 303v297l-115 -297h115z" />
    <glyph glyph-name="onehalf" unicode="&#xbd;" horiz-adv-x="1120" 
d="M244 1444v-809h-140v629h-110v82q106 32 156 98h94zM57 0l654 1446h176l-654 -1446h-176zM936 618q0 99 -68 99q-34 0 -50.5 -25t-18.5 -87l-2 -30h-135v15q0 112 55.5 173.5t149.5 61.5t146 -52t52 -140t-52 -194.5t-212 -321.5h254v-117h-406v117q287 350 287 501z" />
    <glyph glyph-name="threequarters" unicode="&#xbe;" horiz-adv-x="1272" 
d="M420 1231q0 -136 -78 -174q52 -23 74 -67t22 -145t-50 -164t-146 -63t-150.5 60.5t-54.5 169.5v20h133v-32q0 -54 15.5 -78.5t50.5 -24.5q73 0 73 117q0 84 -25.5 116.5t-88.5 32.5h-19v113l21 2q53 0 76.5 29t23.5 96q0 104 -59 104q-35 0 -50.5 -20.5t-15.5 -67.5v-30
h-131v6q0 108 52 168.5t145 60.5q182 0 182 -229zM203 0l653 1446h176l-653 -1446h-176zM788 197v106l234 506h131v-506h86v-106h-86v-197h-131v197h-234zM1022 303v297l-115 -297h115z" />
    <glyph glyph-name="questiondown" unicode="&#xbf;" horiz-adv-x="631" 
d="M449 1444v-238h-216v238h216zM256 902q0 92 -2 116h174l2 -60q0 -207 -63 -374q-24 -62 -81 -170t-57 -153t23.5 -72t60.5 -27q74 0 138 153l174 -69q-80 -277 -310 -277q-133 0 -209.5 75.5t-76.5 195.5t85 272t99 188q43 110 43 202z" />
    <glyph glyph-name="Agrave" unicode="&#xc0;" horiz-adv-x="791" 
d="M307 518h170l-76 604h-14zM12 0l238 1446h291l237 -1446h-229l-45 313h-225l-48 -313h-219zM350 1519l-188 222h251l99 -222h-162z" />
    <glyph glyph-name="Aacute" unicode="&#xc1;" horiz-adv-x="791" 
d="M307 518h170l-76 604h-14zM12 0l238 1446h291l237 -1446h-229l-45 313h-225l-48 -313h-219zM442 1519h-162l97 222h254z" />
    <glyph glyph-name="Acircumflex" unicode="&#xc2;" horiz-adv-x="791" 
d="M307 518h170l-76 604h-14zM12 0l238 1446h291l237 -1446h-229l-45 313h-225l-48 -313h-219zM305 1519h-162l154 222h196l154 -222h-162l-90 109z" />
    <glyph glyph-name="Atilde" unicode="&#xc3;" horiz-adv-x="791" 
d="M307 518h170l-76 604h-14zM12 0l238 1446h291l237 -1446h-229l-45 313h-225l-48 -313h-219zM299 1591q-51 0 -51 -55v-8h-107v16q0 86 42 135q41 49 101 49t122 -30t86 -31q22 -1 36 15t14 42v8h107v-16q-1 -86 -43 -136t-101 -50t-121 30t-85 31z" />
    <glyph glyph-name="Adieresis" unicode="&#xc4;" horiz-adv-x="791" 
d="M307 518h170l-76 604h-14zM12 0l238 1446h291l237 -1446h-229l-45 313h-225l-48 -313h-219zM168 1530v200h182v-200h-182zM438 1530v200h184v-200h-184z" />
    <glyph glyph-name="Aring" unicode="&#xc5;" horiz-adv-x="791" 
d="M307 518h170l-76 604h-14zM12 0l238 1446h291l237 -1446h-229l-45 313h-225l-48 -313h-219zM217 1670q0 74 52.5 126.5t126.5 52.5t125.5 -52t51.5 -126t-51.5 -126t-126.5 -52t-126.5 51.5t-51.5 125.5zM328 1672q0 -28 20 -48t48 -20t47.5 20t19.5 48t-19.5 47.5
t-47.5 19.5t-48 -19.5t-20 -47.5z" />
    <glyph glyph-name="AE" unicode="&#xc6;" horiz-adv-x="1143" 
d="M1081 1446v-209h-364v-379h266v-209h-266v-432h364v-217h-579v346h-232l-94 -346h-237l448 1446h694zM500 547v608h-15l-161 -608h176z" />
    <glyph glyph-name="Ccedilla" unicode="&#xc7;" horiz-adv-x="850" 
d="M88 371v741q0 171 93 268t253 97q160 1 250 -99t90 -272v-139h-229v159q0 150 -115 150t-115 -150v-807q0 -151 115 -151t115 151v197h229v-151q0 -190 -90 -293t-254 -103h-8l-21 -47h17q95 0 148 -34t53 -93q0 -131 -240 -131q-82 0 -166 19v77q70 -16 119 -16
q94 0 94 51q0 60 -111 60h-10l51 119q-268 43 -268 397z" />
    <glyph glyph-name="Egrave" unicode="&#xc8;" horiz-adv-x="754" 
d="M115 0v1446h581v-209h-358v-379h258v-209h-258v-432h358v-217h-581zM365 1519l-188 222h251l99 -222h-162z" />
    <glyph glyph-name="Eacute" unicode="&#xc9;" horiz-adv-x="754" 
d="M115 0v1446h581v-209h-358v-379h258v-209h-258v-432h358v-217h-581zM457 1519h-162l97 222h254z" />
    <glyph glyph-name="Ecircumflex" unicode="&#xca;" horiz-adv-x="754" 
d="M115 0v1446h581v-209h-358v-379h258v-209h-258v-432h358v-217h-581zM320 1519h-162l154 222h196l154 -222h-162l-90 109z" />
    <glyph glyph-name="Edieresis" unicode="&#xcb;" horiz-adv-x="754" 
d="M115 0v1446h581v-209h-358v-379h258v-209h-258v-432h358v-217h-581zM183 1530v200h182v-200h-182zM453 1530v200h184v-200h-184z" />
    <glyph glyph-name="Igrave" unicode="&#xcc;" horiz-adv-x="451" 
d="M115 0v1446h227v-1446h-227zM180 1519l-188 222h251l99 -222h-162z" />
    <glyph glyph-name="Iacute" unicode="&#xcd;" horiz-adv-x="451" 
d="M115 0v1446h227v-1446h-227zM272 1519h-162l97 222h254z" />
    <glyph glyph-name="Icircumflex" unicode="&#xce;" horiz-adv-x="451" 
d="M115 0v1446h227v-1446h-227zM135 1519h-162l154 222h196l154 -222h-162l-90 109z" />
    <glyph glyph-name="Idieresis" unicode="&#xcf;" horiz-adv-x="451" 
d="M115 0v1446h227v-1446h-227zM-2 1530v200h182v-200h-182zM268 1530v200h184v-200h-184z" />
    <glyph glyph-name="Eth" unicode="&#xd0;" horiz-adv-x="889" 
d="M123 0v670h-113v166h113v610h319q185 0 273 -97t88 -300v-646q0 -210 -84.5 -306.5t-267.5 -96.5h-328zM459 213q116 0 116 152v696q0 89 -43 130.5t-135 41.5h-51v-397h115v-166h-115v-457h113z" />
    <glyph glyph-name="Ntilde" unicode="&#xd1;" horiz-adv-x="938" 
d="M322 756v-756h-207v1446h200l283 -864q18 -57 43 -154q-25 143 -25 195v823h209v-1446h-209l-272 799q-25 62 -47 157q25 -158 25 -200zM387 1591q-51 0 -51 -55v-8h-107v16q0 86 42 135q41 49 101 49t122 -30t86 -31q22 -1 36 15t14 42v8h107v-16q-1 -86 -43 -136
t-101 -50t-121 30t-85 31z" />
    <glyph glyph-name="Ograve" unicode="&#xd2;" horiz-adv-x="862" 
d="M88 1112q0 171 93 268t253 97q160 1 250 -99t90 -272v-741q0 -190 -90 -293t-255 -103q-165 1 -253 103t-88 299v741zM430 168q115 0 115 151v807q0 150 -115 150t-115 -150v-807q0 -151 115 -151zM387 1519l-188 222h251l99 -222h-162z" />
    <glyph glyph-name="Oacute" unicode="&#xd3;" horiz-adv-x="862" 
d="M88 1112q0 171 93 268t253 97q160 1 250 -99t90 -272v-741q0 -190 -90 -293t-255 -103q-165 1 -253 103t-88 299v741zM430 168q115 0 115 151v807q0 150 -115 150t-115 -150v-807q0 -151 115 -151zM479 1519h-162l97 222h254z" />
    <glyph glyph-name="Ocircumflex" unicode="&#xd4;" horiz-adv-x="862" 
d="M88 1112q0 171 93 268t253 97q160 1 250 -99t90 -272v-741q0 -190 -90 -293t-255 -103q-165 1 -253 103t-88 299v741zM430 168q115 0 115 151v807q0 150 -115 150t-115 -150v-807q0 -151 115 -151zM342 1519h-162l154 222h196l154 -222h-162l-90 109z" />
    <glyph glyph-name="Otilde" unicode="&#xd5;" horiz-adv-x="862" 
d="M88 1112q0 171 93 268t253 97q160 1 250 -99t90 -272v-741q0 -190 -90 -293t-255 -103q-165 1 -253 103t-88 299v741zM430 168q115 0 115 151v807q0 150 -115 150t-115 -150v-807q0 -151 115 -151zM336 1591q-51 0 -51 -55v-8h-107v16q0 86 42 135t102 49t122 -30t84 -31
t37 15q14 16 14 42v8h107v-16q0 -86 -42 -136t-102 -50t-122 30t-84 31z" />
    <glyph glyph-name="Odieresis" unicode="&#xd6;" horiz-adv-x="862" 
d="M88 1112q0 171 93 268t253 97q160 1 250 -99t90 -272v-741q0 -190 -90 -293t-255 -103q-165 1 -253 103t-88 299v741zM430 168q115 0 115 151v807q0 150 -115 150t-115 -150v-807q0 -151 115 -151zM205 1530v200h182v-200h-182zM475 1530v200h184v-200h-184z" />
    <glyph glyph-name="multiply" unicode="&#xd7;" horiz-adv-x="1706" 
d="M403 1188l459 -459l461 459l117 -117l-459 -461l459 -458l-117 -119l-461 461l-459 -461l-116 119l458 458l-458 461z" />
    <glyph glyph-name="Oslash" unicode="&#xd8;" horiz-adv-x="862" 
d="M88 371v741q0 171 92.5 268t257.5 97q99 0 183 -50l16 48h162l-64 -175q39 -90 39 -194v-741q0 -190 -89.5 -293t-254.5 -103q-110 0 -194 51l-15 -51h-160l66 172q-39 86 -39 230zM430 1288q-53 0 -88 -32.5t-35 -84.5v-602l236 652q-32 67 -113 67zM424 158
q65 0 98 37.5t33 101.5v582l-238 -652q42 -69 107 -69z" />
    <glyph glyph-name="Ugrave" unicode="&#xd9;" horiz-adv-x="885" 
d="M98 1446h228v-1120q0 -62 32 -100t86 -38q53 0 83 37t30 101v1120h227v-1081q0 -191 -88 -293t-255 -103q-167 0 -255 103t-88 299v1075zM397 1519l-188 222h251l99 -222h-162z" />
    <glyph glyph-name="Uacute" unicode="&#xda;" horiz-adv-x="885" 
d="M98 1446h228v-1120q0 -62 32 -100t86 -38q53 0 83 37t30 101v1120h227v-1081q0 -191 -88 -293t-255 -103q-167 0 -255 103t-88 299v1075zM489 1519h-162l97 222h254z" />
    <glyph glyph-name="Ucircumflex" unicode="&#xdb;" horiz-adv-x="885" 
d="M98 1446h228v-1120q0 -62 32 -100t86 -38q53 0 83 37t30 101v1120h227v-1081q0 -191 -88 -293t-255 -103q-167 0 -255 103t-88 299v1075zM352 1519h-162l154 222h196l154 -222h-162l-90 109z" />
    <glyph glyph-name="Udieresis" unicode="&#xdc;" horiz-adv-x="885" 
d="M98 1446h228v-1120q0 -62 32 -100t86 -38q53 0 83 37t30 101v1120h227v-1081q0 -191 -88 -293t-255 -103q-167 0 -255 103t-88 299v1075zM215 1530v200h182v-200h-182zM485 1530v200h184v-200h-184z" />
    <glyph glyph-name="Yacute" unicode="&#xdd;" horiz-adv-x="702" 
d="M465 0h-223v573l-267 873h226l145 -578h14l138 578h227l-260 -846v-600zM399 1519h-162l97 222h254z" />
    <glyph glyph-name="Thorn" unicode="&#xde;" horiz-adv-x="834" 
d="M113 0v1446h223v-289h104q183 0 265.5 -99.5t82.5 -311.5t-80.5 -330.5t-218.5 -118.5h-153v-297h-223zM336 506h88q78 0 107.5 48t29.5 176t-31 173t-114 45h-80v-442z" />
    <glyph glyph-name="germandbls" unicode="&#xdf;" horiz-adv-x="823" 
d="M115 1067l-2 61q0 167 71.5 242.5t215.5 75.5t218 -69t74 -193q0 -149 -125 -205q101 -22 142 -81.5t41 -197.5v-366q0 -348 -240 -348q-74 0 -150 43l1 155q44 -26 71 -26q119 0 119 145v436q0 79 -29 111.5t-98 32.5h-64v184h60q34 0 58 28.5t24 74.5t-26 75t-70 29
q-93 0 -93 -105v-1169h-198v883h-131v184h131z" />
    <glyph glyph-name="agrave" unicode="&#xe0;" horiz-adv-x="729" 
d="M221 -14q-174 0 -174 252q-1 130 83 234t308 224v115q0 98 -67 98q-42 0 -66 -24t-24 -66v-59h-201l-2 28q0 134 85 220t217 86q263 0 263 -334v-455q0 -225 19 -305h-199q-15 40 -19 120q-98 -134 -223 -134zM252 262q0 -94 61 -94q35 0 69 26t56 72v277
q-106 -69 -146 -128t-40 -153zM336 1167l-188 222h251l99 -222h-162z" />
    <glyph glyph-name="aacute" unicode="&#xe1;" horiz-adv-x="729" 
d="M221 -14q-174 0 -174 252q-1 130 83 234t308 224v115q0 98 -67 98q-42 0 -66 -24t-24 -66v-59h-201l-2 28q0 134 85 220t217 86q263 0 263 -334v-455q0 -225 19 -305h-199q-15 40 -19 120q-98 -134 -223 -134zM252 262q0 -94 61 -94q35 0 69 26t56 72v277
q-106 -69 -146 -128t-40 -153zM428 1167h-162l97 222h254z" />
    <glyph glyph-name="acircumflex" unicode="&#xe2;" horiz-adv-x="729" 
d="M221 -14q-174 0 -174 252q-1 130 83 234t308 224v115q0 98 -67 98q-42 0 -66 -24t-24 -66v-59h-201l-2 28q0 134 85 220t217 86q263 0 263 -334v-455q0 -225 19 -305h-199q-15 40 -19 120q-98 -134 -223 -134zM252 262q0 -94 61 -94q35 0 69 26t56 72v277
q-106 -69 -146 -128t-40 -153zM291 1167h-162l154 222h196l154 -222h-162l-90 109z" />
    <glyph glyph-name="atilde" unicode="&#xe3;" horiz-adv-x="729" 
d="M221 -14q-174 0 -174 252q-1 130 83 234t308 224v115q0 98 -67 98q-42 0 -66 -24t-24 -66v-59h-201l-2 28q0 134 85 220t217 86q263 0 263 -334v-455q0 -225 19 -305h-199q-15 40 -19 120q-98 -134 -223 -134zM252 262q0 -94 61 -94q35 0 69 26t56 72v277
q-106 -69 -146 -128t-40 -153zM285 1239q-51 0 -51 -55v-8h-107v16q0 86 42 135q41 49 101 49t122 -30t86 -31q22 -1 36 15t14 42v8h107v-16q-1 -86 -43 -136t-101 -50t-121 30t-85 31z" />
    <glyph glyph-name="adieresis" unicode="&#xe4;" horiz-adv-x="729" 
d="M221 -14q-174 0 -174 252q-1 130 83 234t308 224v115q0 98 -67 98q-42 0 -66 -24t-24 -66v-59h-201l-2 28q0 134 85 220t217 86q263 0 263 -334v-455q0 -225 19 -305h-199q-15 40 -19 120q-98 -134 -223 -134zM252 262q0 -94 61 -94q35 0 69 26t56 72v277
q-106 -69 -146 -128t-40 -153zM154 1178v200h182v-200h-182zM424 1178v200h184v-200h-184z" />
    <glyph glyph-name="aring" unicode="&#xe5;" horiz-adv-x="729" 
d="M221 -14q-174 0 -174 252q0 130 83.5 234t307.5 224v115q0 98 -67 98q-42 0 -66 -24t-24 -66v-59h-201l-2 28q0 134 85 220t217 86q263 0 263 -334v-455q0 -225 19 -305h-199q-15 40 -19 120q-98 -134 -223 -134zM252 262q0 -94 61 -94q35 0 69.5 26.5t55.5 71.5v277
q-106 -69 -146 -128t-40 -153zM209 1318q0 74 52 126.5t126 52.5t126 -52.5t52 -126.5t-52.5 -125.5t-126.5 -51.5t-125.5 51.5t-51.5 125.5zM319 1318q0 -28 20.5 -47.5t48.5 -19.5t47.5 19.5t19.5 47.5t-19.5 47t-47.5 19t-48.5 -19t-20.5 -47z" />
    <glyph glyph-name="ae" unicode="&#xe6;" horiz-adv-x="1096" 
d="M759 1094q117 0 192 -82.5t75 -231.5v-272h-379v-201q0 -83 20.5 -116t68.5 -33t67.5 27.5t19.5 121.5v74h203v-80q0 -162 -73 -246t-214 -84q-88 0 -148.5 37.5t-113.5 124.5q-131 -147 -252 -147q-82 0 -128 61t-46 191t83 233.5t310 224.5v115q0 96 -69 96
q-51 0 -72.5 -33.5t-21.5 -113.5h-201v4q0 148 83.5 239t217.5 91q99 0 178 -62q83 62 200 62zM315 168q81 0 129 98v277q-110 -74 -149 -130.5t-39 -150.5t59 -94zM647 674h176v108q0 66 -21 95.5t-67 29.5t-67 -29t-21 -96v-108z" />
    <glyph glyph-name="ccedilla" unicode="&#xe7;" horiz-adv-x="729" 
d="M365 -205q0 60 -111 60h-10l52 122q-87 17 -143 83q-77 88 -77 241v471q0 146 82 234t216 88t210 -83t75 -231v-84h-204v86q-1 67 -21 96t-66 29t-66 -29t-21 -96v-475q-1 -85 19 -117t68 -32t68 28t19 121v82h204v-88q0 -330 -297 -330l-22 -49h17q95 0 148 -34t53 -93
q0 -131 -240 -131q-82 0 -166 19v77q70 -16 119 -16q94 0 94 51z" />
    <glyph glyph-name="egrave" unicode="&#xe8;" horiz-adv-x="729" 
d="M659 301q0 -330 -297 -330q-134 0 -210 88t-76 242v479q0 138 84 226t218 88t208 -81q73 -81 73 -233v-272h-378v-201q-1 -85 19 -117t68 -32t68 28t19 121v74h204v-80zM281 674h174v108q-1 67 -21 96t-66 29t-66 -29t-21 -96v-108zM332 1167l-188 222h251l99 -222h-162z
" />
    <glyph glyph-name="eacute" unicode="&#xe9;" horiz-adv-x="729" 
d="M659 301q0 -330 -297 -330q-134 0 -210 88t-76 242v479q0 138 84 226t218 88t208 -81q73 -81 73 -233v-272h-378v-201q-1 -85 19 -117t68 -32t68 28t19 121v74h204v-80zM281 674h174v108q-1 67 -21 96t-66 29t-66 -29t-21 -96v-108zM424 1167h-162l97 222h254z" />
    <glyph glyph-name="ecircumflex" unicode="&#xea;" horiz-adv-x="729" 
d="M659 301q0 -330 -297 -330q-134 0 -210 88t-76 242v479q0 138 84 226t218 88t208 -81q73 -81 73 -233v-272h-378v-201q-1 -85 19 -117t68 -32t68 28t19 121v74h204v-80zM281 674h174v108q-1 67 -21 96t-66 29t-66 -29t-21 -96v-108zM287 1167h-162l154 222h196l154 -222
h-162l-90 109z" />
    <glyph glyph-name="edieresis" unicode="&#xeb;" horiz-adv-x="729" 
d="M659 301q0 -330 -297 -330q-134 0 -210 88t-76 242v479q0 138 84 226t218 88t208 -81q73 -81 73 -233v-272h-378v-201q-1 -85 19 -117t68 -32t68 28t19 121v74h204v-80zM281 674h174v108q-1 67 -21 96t-66 29t-66 -29t-21 -96v-108zM150 1178v200h182v-200h-182z
M420 1178v200h184v-200h-184z" />
    <glyph glyph-name="igrave" unicode="&#xec;" horiz-adv-x="393" 
d="M96 0v1067h201v-1067h-201zM152 1167l-188 222h251l99 -222h-162z" />
    <glyph glyph-name="iacute" unicode="&#xed;" horiz-adv-x="393" 
d="M96 0v1067h201v-1067h-201zM244 1167h-162l97 222h254z" />
    <glyph glyph-name="icircumflex" unicode="&#xee;" horiz-adv-x="393" 
d="M96 0v1067h201v-1067h-201zM107 1167h-162l154 222h196l154 -222h-162l-90 109z" />
    <glyph glyph-name="idieresis" unicode="&#xef;" horiz-adv-x="393" 
d="M96 0v1067h201v-1067h-201zM-30 1178v200h182v-200h-182zM240 1178v200h184v-200h-184z" />
    <glyph glyph-name="eth" unicode="&#xf0;" horiz-adv-x="727" 
d="M281 250q0 -92 81 -92q41 0 64 24t23 68v553q0 35 -23.5 56.5t-61.5 21.5t-60.5 -22t-22.5 -56v-553zM651 723v-457q0 -137 -77.5 -215t-209.5 -78t-210 80.5t-78 216.5v504q0 125 80 199t215 74q7 0 16 -1t19 -2q-35 79 -99 148l-164 -129l-53 78l154 121
q-72 76 -109 112l92 101q64 -50 135 -121l152 121l57 -76l-143 -113q116 -130 169.5 -265t53.5 -298z" />
    <glyph glyph-name="ntilde" unicode="&#xf1;" horiz-adv-x="756" 
d="M524 1081q140 0 140 -188v-893h-199v805q1 50 -11 67t-38 17q-55 0 -119 -80v-809h-201v1067h201v-117q113 131 227 131zM295 1239q-51 0 -51 -55v-8h-107v16q0 86 42 135q41 49 101 49t122 -30t86 -31q22 -1 36 15t14 42v8h107v-16q-1 -86 -43 -136t-101 -50t-121 30
t-85 31z" />
    <glyph glyph-name="ograve" unicode="&#xf2;" horiz-adv-x="727" 
d="M76 823q0 123 80 197t209 74t207 -78t79 -199v-551q0 -137 -77 -215q-78 -78 -210 -78q-132 1 -210 81t-78 216v553zM281 250q0 -92 81 -92q40 0 64 24t23 68v581q0 35 -24 57q-23 22 -61 21q-38 1 -60 -21t-23 -57v-581zM320 1167l-188 222h251l99 -222h-162z" />
    <glyph glyph-name="oacute" unicode="&#xf3;" horiz-adv-x="727" 
d="M76 823q0 123 80 197t209 74t207 -78t79 -199v-551q0 -137 -77 -215q-78 -78 -210 -78q-132 1 -210 81t-78 216v553zM281 250q0 -92 81 -92q40 0 64 24t23 68v581q0 35 -24 57q-23 22 -61 21q-38 1 -60 -21t-23 -57v-581zM412 1167h-162l97 222h254z" />
    <glyph glyph-name="ocircumflex" unicode="&#xf4;" horiz-adv-x="727" 
d="M76 823q0 123 80 197t209 74t207 -78t79 -199v-551q0 -137 -77 -215q-78 -78 -210 -78q-132 1 -210 81t-78 216v553zM281 250q0 -92 81 -92q40 0 64 24t23 68v581q0 35 -24 57q-23 22 -61 21q-38 1 -60 -21t-23 -57v-581zM275 1167h-162l154 222h196l154 -222h-162
l-90 109z" />
    <glyph glyph-name="otilde" unicode="&#xf5;" horiz-adv-x="727" 
d="M76 823q0 123 80 197t209 74t207 -78t79 -199v-551q0 -137 -77 -215q-78 -78 -210 -78q-132 1 -210 81t-78 216v553zM281 250q0 -92 81 -92q40 0 64 24t23 68v581q0 35 -24 57q-23 22 -61 21q-38 1 -60 -21t-23 -57v-581zM269 1239q-51 0 -51 -55v-8h-107v16q0 86 42 135
q41 49 101 49t122 -30t86 -31q22 -1 36 15t14 42v8h107v-16q-1 -86 -43 -136t-101 -50t-121 30t-85 31z" />
    <glyph glyph-name="odieresis" unicode="&#xf6;" horiz-adv-x="727" 
d="M76 823q0 123 80 197t209 74t207 -78t79 -199v-551q0 -137 -77 -215q-78 -78 -210 -78q-132 1 -210 81t-78 216v553zM281 250q0 -92 81 -92q40 0 64 24t23 68v581q0 35 -24 57q-23 22 -61 21q-38 1 -60 -21t-23 -57v-581zM138 1178v200h182v-200h-182zM408 1178v200h184
v-200h-184z" />
    <glyph glyph-name="divide" unicode="&#xf7;" horiz-adv-x="1706" 
d="M854 1128q56 0 96.5 -41t40.5 -97t-39.5 -96t-97.5 -40t-97.5 39t-39.5 96t40.5 98t96.5 41zM254 694h1198v-166h-1198v166zM854 367q56 0 96.5 -40.5t40.5 -96.5t-39.5 -96t-97.5 -40t-97.5 39t-39.5 96t40.5 97.5t96.5 40.5z" />
    <glyph glyph-name="oslash" unicode="&#xf8;" horiz-adv-x="727" 
d="M274 838v-373l172 401q-15 54 -81 54q-38 0 -64.5 -24t-26.5 -58zM453 229v373l-170 -401q14 -51 82 -51q37 0 62.5 22.5t25.5 56.5zM651 817v-571q0 -124 -79.5 -198.5t-213.5 -74.5q-83 0 -149 39l-27 -59h-139l68 158q-35 47 -35 139v573q0 124 80 197.5t215 73.5
q85 0 147 -37l19 39h139l-60 -140q35 -47 35 -139z" />
    <glyph glyph-name="ugrave" unicode="&#xf9;" horiz-adv-x="756" 
d="M291 248q0 -72 53 -72q22 0 56 22t61 58v811h198v-1067h-198v117q-113 -133 -230 -133q-139 0 -139 190v893h199v-819zM334 1167l-188 222h251l99 -222h-162z" />
    <glyph glyph-name="uacute" unicode="&#xfa;" horiz-adv-x="756" 
d="M291 248q0 -72 53 -72q22 0 56 22t61 58v811h198v-1067h-198v117q-113 -133 -230 -133q-139 0 -139 190v893h199v-819zM426 1167h-162l97 222h254z" />
    <glyph glyph-name="ucircumflex" unicode="&#xfb;" horiz-adv-x="756" 
d="M291 248q0 -72 53 -72q22 0 56 22t61 58v811h198v-1067h-198v117q-113 -133 -230 -133q-139 0 -139 190v893h199v-819zM289 1167h-162l154 222h196l154 -222h-162l-90 109z" />
    <glyph glyph-name="udieresis" unicode="&#xfc;" horiz-adv-x="756" 
d="M291 248q0 -72 53 -72q22 0 56 22t61 58v811h198v-1067h-198v117q-113 -133 -230 -133q-139 0 -139 190v893h199v-819zM152 1178v200h182v-200h-182zM422 1178v200h184v-200h-184z" />
    <glyph glyph-name="yacute" unicode="&#xfd;" horiz-adv-x="653" 
d="M119 -336q-51 0 -80 3v190h37q84 -1 120 37t42 131l-220 1042h187l123 -684h8l100 684h199l-225 -1141q-28 -142 -95 -202t-196 -60zM375 1167h-162l97 222h254z" />
    <glyph glyph-name="thorn" unicode="&#xfe;" horiz-adv-x="739" 
d="M473 -14q-94 0 -176 100v-422h-201v1782h201v-463q76 98 176 98q193 0 193 -237v-590q0 -131 -49.5 -199.5t-143.5 -68.5zM379 154q82 0 82 112v551q0 50 -16.5 72t-60.5 22t-87 -47v-665q45 -45 82 -45z" />
    <glyph glyph-name="ydieresis" unicode="&#xff;" horiz-adv-x="653" 
d="M119 -336q-51 0 -80 3v190h37q84 -1 120 37t42 131l-220 1042h187l123 -684h8l100 684h199l-225 -1141q-28 -142 -95 -202t-196 -60zM101 1178v200h182v-200h-182zM371 1178v200h184v-200h-184z" />
    <glyph glyph-name="Cacute" unicode="&#x106;" horiz-adv-x="850" 
d="M430 168q115 0 115 151v197h229v-151q0 -190 -90 -293t-256 -103q-168 0 -254 102t-86 300v741q0 171 93 268t253 97q160 1 250 -99t90 -272v-139h-229v159q0 150 -115 150t-115 -150v-807q0 -151 115 -151zM473 1519h-162l97 222h254z" />
    <glyph glyph-name="cacute" unicode="&#x107;" horiz-adv-x="729" 
d="M659 301q0 -330 -297 -330q-132 1 -209 89t-77 241v471q0 146 82 234t216 88t210 -83t75 -231v-84h-204v86q-1 67 -21 96t-66 29t-66 -29t-21 -96v-475q-1 -85 19 -117t68 -32t68 28t19 121v82h204v-88zM424 1167h-162l97 222h254z" />
    <glyph glyph-name="Ccaron" unicode="&#x10c;" horiz-adv-x="850" 
d="M430 168q115 0 115 151v197h229v-151q0 -190 -90 -293t-256 -103q-168 0 -254 102t-86 300v741q0 171 93 268t253 97q160 1 250 -99t90 -272v-139h-229v159q0 150 -115 150t-115 -150v-807q0 -151 115 -151zM516 1741h162l-154 -222h-196l-154 222h162l90 -109z" />
    <glyph glyph-name="ccaron" unicode="&#x10d;" horiz-adv-x="729" 
d="M659 301q0 -330 -297 -330q-132 1 -209 89t-77 241v471q0 146 82 234t216 88t210 -83t75 -231v-84h-204v86q-1 67 -21 96t-66 29t-66 -29t-21 -96v-475q-1 -85 19 -117t68 -32t68 28t19 121v82h204v-88zM467 1389h162l-154 -222h-196l-154 222h162l90 -109z" />
    <glyph glyph-name="dcroat" unicode="&#x111;" horiz-adv-x="750" 
d="M267 -14q-100 0 -145.5 60t-45.5 175v592q0 131 49 199.5t143 68.5t176 -100v236h-184v94h184v135h199v-135h98v-94h-98v-1217h-199v84q-77 -98 -177 -98zM281 801v-551q0 -94 69 -94q51 0 94 47v665q-43 45 -82 45q-38 0 -59.5 -29.5t-21.5 -82.5z" />
    <glyph glyph-name="Gbreve" unicode="&#x11e;" horiz-adv-x="852" 
d="M88 371v741q0 171 93 268t254 97q325 0 325 -371v-133h-215v153q0 150 -115 150t-115 -150v-807q0 -151 115 -151t115 151v226h-135v184h350v-729h-107l-43 100q-72 -131 -218 -131t-225 103t-79 299zM426 1515q-215 0 -215 213v13h131q0 -53 20 -76t64 -23t64 23t20 76
h131v-13q0 -213 -215 -213z" />
    <glyph glyph-name="gbreve" unicode="&#x11f;" horiz-adv-x="707" 
d="M63 125q0 51 28 93t102 95q-71 45 -101 101t-29 151v213q-1 152 71 234t204 82t229 -119q44 96 150 106v-173q-32 5 -41 5q-51 0 -76 -41q2 -36 2 -71v-238q0 -139 -66 -213t-190 -74q-49 3 -53 5q-47 -35 -47 -68q0 -46 117 -53q70 -4 112 -10q130 -20 191 -78t61 -162
q0 -252 -385 -252q-158 0 -246 45t-88 125t96 136q32 18 82 38q-123 31 -123 123zM227 -102q0 -41 41 -66t111 -25q70 1 119 25t49 64q-1 40 -55 59t-189 20q-76 -36 -76 -77zM246 553q0 -109 87 -109t87 109v248q0 108 -87 108t-87 -108v-248zM354 1163q-215 0 -215 213v13
h131q0 -53 20 -76t64 -23t64 23t20 76h131v-13q0 -213 -215 -213z" />
    <glyph glyph-name="Idotaccent" unicode="&#x130;" horiz-adv-x="451" 
d="M115 0v1446h227v-1446h-227zM129 1526v208h192v-208h-192z" />
    <glyph glyph-name="dotlessi" unicode="&#x131;" horiz-adv-x="393" 
d="M96 0v1067h201v-1067h-201z" />
    <glyph glyph-name="Lslash" unicode="&#x141;" horiz-adv-x="702" 
d="M123 0v584l-113 -80v190l113 80v672h223v-549l172 121v-193l-172 -120v-496h346v-209h-569z" />
    <glyph glyph-name="lslash" unicode="&#x142;" horiz-adv-x="412" 
d="M106 0v616l-96 -67v117l96 67v713h199v-608l98 65v-117l-98 -67v-719h-199z" />
    <glyph glyph-name="OE" unicode="&#x152;" horiz-adv-x="1188" 
d="M315 305q0 -63 33.5 -100t85.5 -37t81.5 35.5t29.5 99.5v858q0 52 -31.5 83.5t-82.5 31.5t-83.5 -32.5t-32.5 -82.5v-856zM438 1477q67 0 146 -31h542v-209h-358v-379h260v-209h-260v-432h358v-217h-542q-87 -31 -154 -31q-166 0 -254 103t-88 299v741q0 171 93 268
t257 97z" />
    <glyph glyph-name="oe" unicode="&#x153;" horiz-adv-x="1100" 
d="M76 270v553q0 124 80 197.5t200 73.5t201 -64q95 64 209 64t189 -83t75 -231v-272h-379v-201q0 -83 20.5 -116t68.5 -33t67.5 27.5t19.5 121.5v74h203v-80q0 -162 -73 -246t-199 -84t-201 64q-78 -64 -201 -64q-124 0 -202 81t-78 218zM281 250q0 -42 22.5 -67t60.5 -25
t61.5 24t23.5 68v581q0 35 -23.5 56.5t-61.5 21.5t-60.5 -21.5t-22.5 -56.5v-581zM651 674h176v108q0 66 -21 96.5t-67 30.5t-67 -29.5t-21 -97.5v-108z" />
    <glyph glyph-name="Scedilla" unicode="&#x15e;" horiz-adv-x="803" 
d="M545 324q0 113 -180 292l-21 21q-176 177 -226 271t-50 200q0 154 100 258t244 104q143 0 233 -96t103 -262l-218 -31q-6 97 -34 139t-86 42q-56 0 -88 -36t-33 -98q0 -126 210 -329q171 -171 217 -262t46 -209q0 -158 -98 -260t-248 -101h-20l-20 -45h17q95 0 148 -34
t53 -93q0 -131 -240 -131q-82 0 -166 19v77q70 -16 119 -16q94 0 94 51q0 60 -111 60h-10l51 120q-109 21 -179 98q-98 106 -105 294l213 32q12 -215 148 -215q61 0 99 38t38 102z" />
    <glyph glyph-name="scedilla" unicode="&#x15f;" horiz-adv-x="686" 
d="M221 332q24 -174 124 -174q49 0 74 26t25 68q0 83 -202 236q-2 2 -5 4q-101 76 -143 148t-43 163q0 131 81 211t208 80t203 -74t85 -203l-188 -45q-22 135 -106 135q-40 1 -63 -25t-23 -69q0 -70 141 -181q38 -31 59 -48q111 -94 152 -164t41 -158q1 -132 -81 -212
t-216 -79h-3l-22 -49h17q95 0 148 -34t53 -93q0 -131 -240 -131q-82 0 -166 19v77q70 -16 119 -16q94 0 94 51q0 60 -111 60h-10l52 123q-83 17 -143 77q-84 84 -103 234z" />
    <glyph glyph-name="Scaron" unicode="&#x160;" horiz-adv-x="803" 
d="M545 324q0 113 -180 292l-21 21q-176 177 -226 271t-50 200q0 154 100 258t244 104q143 0 233 -96t103 -262l-218 -31q-6 97 -34 139t-86 42q-56 0 -88 -36t-33 -98q0 -126 210 -329q171 -171 217 -262t46 -209q0 -158 -98 -260t-256 -101q-158 0 -256 106t-105 294
l213 32q12 -215 148 -215q61 0 99 38t38 102zM491 1741h162l-154 -222h-196l-154 222h162l90 -109z" />
    <glyph glyph-name="scaron" unicode="&#x161;" horiz-adv-x="686" 
d="M221 332q24 -174 124 -174q49 0 74 26t25 68q0 83 -202 236q-2 2 -5 4q-101 76 -143 148t-43 163q0 131 81 211t208 80t203 -74t85 -203l-188 -45q-22 135 -106 135q-40 1 -63 -25t-23 -69q0 -70 141 -181q38 -31 59 -48q111 -94 152 -164t41 -158q1 -132 -81 -212
t-213 -79q-131 0 -215 84t-103 234zM434 1389h162l-154 -222h-196l-154 222h162l90 -109z" />
    <glyph glyph-name="Ydieresis" unicode="&#x178;" horiz-adv-x="702" 
d="M465 0h-223v573l-267 873h226l145 -578h14l138 578h227l-260 -846v-600zM125 1530v200h182v-200h-182zM395 1530v200h184v-200h-184z" />
    <glyph glyph-name="Zcaron" unicode="&#x17d;" horiz-adv-x="774" 
d="M63 0v223l400 1000h-367v223h609v-209l-404 -1014h404v-223h-642zM477 1741h162l-154 -222h-196l-154 222h162l90 -109z" />
    <glyph glyph-name="zcaron" unicode="&#x17e;" horiz-adv-x="635" 
d="M53 0v178l326 703h-301v186h508v-176l-312 -701h312v-190h-533zM407 1389h162l-154 -222h-196l-154 222h162l90 -109z" />
    <glyph glyph-name="florin" unicode="&#x192;" horiz-adv-x="831" 
d="M65 -156q35 0 62 26.5t35 76.5l141 835h-190v166h219l45 260q24 140 82.5 203.5t163.5 63.5q65 0 114 -17v-174q-40 10 -71 10t-58 -26.5t-35 -75.5l-38 -244h202v-166h-233l-144 -854q-23 -138 -82.5 -201t-164.5 -63q-60 0 -113 17v172q30 -9 65 -9z" />
    <glyph glyph-name="circumflex" unicode="&#x2c6;" 
d="M422 1167h-162l154 222h196l154 -222h-162l-90 109z" />
    <glyph glyph-name="caron" unicode="&#x2c7;" 
d="M602 1389h162l-154 -222h-196l-154 222h162l90 -109z" />
    <glyph glyph-name="breve" unicode="&#x2d8;" 
d="M512 1163q-215 0 -215 213v13h131q0 -53 19.5 -76t64.5 -23t64.5 23t19.5 76h131v-13q0 -213 -215 -213z" />
    <glyph glyph-name="dotaccent" unicode="&#x2d9;" 
d="M416 1174v208h192v-208h-192z" />
    <glyph glyph-name="ring" unicode="&#x2da;" 
d="M444 1344q0 -28 20 -47t48 -19t48 19t20 47t-20 47.5t-48 19.5t-48 -19.5t-20 -47.5zM334 1344q0 74 52 127t126 53t126 -52.5t52 -126.5t-52 -126t-126 -52t-126 51.5t-52 125.5z" />
    <glyph glyph-name="ogonek" unicode="&#x2db;" 
d="M561 -171q0 -69 43 -118h-180q-23 48 -23 93q0 90 113 196h115q-68 -102 -68 -171z" />
    <glyph glyph-name="tilde" unicode="&#x2dc;" 
d="M416 1239q-51 0 -51 -55v-8h-107v16q0 86 42 135t102 49t122 -30.5t84 -30.5t36.5 15.5t14.5 41.5v8h107v-16q0 -87 -42.5 -136.5t-101.5 -49.5t-121.5 30.5t-84.5 30.5z" />
    <glyph glyph-name="hungarumlaut" unicode="&#x2dd;" 
d="M668 1167h-117l96 222h209zM408 1167h-105l82 222h207z" />
    <glyph glyph-name="Omega" unicode="&#x3a9;" horiz-adv-x="1569" 
d="M1221 825q0 210 -121 341.5t-317 131.5t-315.5 -132t-119.5 -338t84 -357t240 -242v-229h-602v213h305q-144 130 -211.5 274t-67.5 322q0 314 190.5 508t495.5 194t498 -192.5t193 -493.5q0 -190 -65.5 -333t-213.5 -279h305v-213h-602v229q324 190 324 596z" />
    <glyph glyph-name="pi" unicode="&#x3c0;" horiz-adv-x="1368" 
d="M999 -16q-266 0 -266 188q0 92 52 358l71 359h-268l-174 -889h-226l172 889h-45q-54 0 -83.5 -31.5t-39.5 -99.5h-174q28 187 100 255t242 68h953l-39 -192h-193l-84 -437q-2 -14 -16 -84t-14 -116q0 -94 100 -94q32 0 102 10l-34 -168q-58 -16 -136 -16z" />
    <glyph glyph-name="endash" unicode="&#x2013;" 
d="M0 467v133h1024v-133h-1024z" />
    <glyph glyph-name="emdash" unicode="&#x2014;" horiz-adv-x="2048" 
d="M0 467v133h2048v-133h-2048z" />
    <glyph glyph-name="quoteleft" unicode="&#x2018;" horiz-adv-x="440" 
d="M328 1190v-227h-213v227l112 256h101l-76 -256h76z" />
    <glyph glyph-name="quoteright" unicode="&#x2019;" horiz-adv-x="440" 
d="M115 1219v227h213v-227l-115 -256h-98l73 256h-73z" />
    <glyph glyph-name="quotesinglbase" unicode="&#x201a;" horiz-adv-x="440" 
d="M115 0v227h213v-227l-115 -256h-98l73 256h-73z" />
    <glyph glyph-name="quotedblleft" unicode="&#x201c;" horiz-adv-x="739" 
d="M328 1190v-227h-213v227l112 256h101l-76 -256h76zM627 1190v-227h-215v227l114 256h101l-76 -256h76z" />
    <glyph glyph-name="quotedblright" unicode="&#x201d;" horiz-adv-x="739" 
d="M412 1219v227h215v-227l-115 -256h-100l75 256h-75zM115 1219v227h213v-227l-115 -256h-98l73 256h-73z" />
    <glyph glyph-name="quotedblbase" unicode="&#x201e;" horiz-adv-x="739" 
d="M115 0v227h213v-227l-115 -256h-98l73 256h-73zM412 0v227h215v-227l-115 -256h-100l75 256h-75z" />
    <glyph glyph-name="dagger" unicode="&#x2020;" horiz-adv-x="788" 
d="M506 647q-57 -225 -74 -799l-78 1q-15 529 -73 798q54 170 73 332l-313 -82v223l313 -71l-73 397h225l-74 -397l316 71v-223l-316 82q25 -180 74 -332z" />
    <glyph glyph-name="daggerdbl" unicode="&#x2021;" horiz-adv-x="788" 
d="M358 326q-26 178 -77 327q52 155 77 326l-317 -82v223l315 -71l-75 397h225l-74 -397l316 71v-223l-318 82q31 -196 76 -326q-45 -128 -76 -327l318 82v-224l-316 72l74 -397h-225l75 397l-315 -72v224z" />
    <glyph glyph-name="bullet" unicode="&#x2022;" horiz-adv-x="1208" 
d="M307 762q0 123 87.5 209t209.5 86t208.5 -86.5t86.5 -208.5t-87.5 -209.5t-209.5 -87.5t-208.5 87t-86.5 210z" />
    <glyph glyph-name="ellipsis" unicode="&#x2026;" horiz-adv-x="2048" 
d="M236 0v227h213v-227h-213zM918 0v227h213v-227h-213zM1602 0v227h213v-227h-213z" />
    <glyph glyph-name="perthousand" unicode="&#x2030;" horiz-adv-x="1556" 
d="M244 707q-221 0 -221 266v260q0 114 58.5 178t162.5 64t162.5 -66t58.5 -180v-260q0 -126 -57.5 -194t-163.5 -68zM244 844q63 0 63 88v332q0 34 -17.5 54.5t-45.5 20.5t-47 -21.5t-19 -53.5v-332q0 -39 19 -63.5t47 -24.5zM109 0l653 1446h176l-653 -1446h-176zM815 104
q66 0 66 91v329q0 34 -18.5 56t-46.5 22t-46 -21.5t-18 -54.5v-331q0 -40 18 -65.5t45 -25.5zM1036 231q0 -126 -57 -194t-165 -68t-164 68t-56 199v260q0 113 60 177t164 64t161 -65.5t57 -179.5v-261zM1548 231q0 -126 -58 -194t-166 -68t-164 68t-56 199v260
q0 113 60 177t164 64t162 -65.5t58 -179.5v-261zM1325 104q66 0 66 91v329q0 34 -18.5 56t-46.5 22t-46 -21.5t-18 -54.5v-331q0 -40 18 -65.5t45 -25.5z" />
    <glyph glyph-name="guilsinglleft" unicode="&#x2039;" horiz-adv-x="473" 
d="M76 530l147 318h172l-139 -318l139 -315h-172z" />
    <glyph glyph-name="guilsinglright" unicode="&#x203a;" horiz-adv-x="473" 
d="M395 530l-147 -315h-172l139 315l-139 318h172z" />
    <glyph glyph-name="franc" unicode="&#x20a3;" horiz-adv-x="1223" 
d="M115 0v1446h581v-209h-358v-379h258v-209h-258v-649h-223zM1147 870q-77 0 -121 -46t-45 -126v-698h-201v1067h201v-145q76 157 211 157h20v-223q-28 14 -65 14z" />
    <glyph glyph-name="trademark" unicode="&#x2122;" horiz-adv-x="1706" 
d="M225 1460h467v-94h-168v-448h-129v448h-170v94zM809 1460h170l141 -360l133 360h170v-542h-114v428l-160 -428h-59l-166 428v-428h-115v542z" />
    <glyph glyph-name="partialdiff" unicode="&#x2202;" horiz-adv-x="1075" 
d="M705 504q0 116 -41 178.5t-117 62.5q-105 0 -174.5 -131.5t-69.5 -337.5q0 -116 40.5 -177.5t117.5 -61.5q105 0 174.5 132.5t69.5 334.5zM793 972q0 121 -29.5 175.5t-91.5 54.5t-147 -58.5t-122 -58.5t-64.5 26t-27.5 60q0 66 79 115t200 49q176 0 287.5 -159
t111.5 -422q0 -338 -150 -558.5t-376 -220.5q-161 0 -266 111.5t-105 295.5t113 313.5t278 129.5q101 0 167.5 -45t107.5 -141q35 212 35 333z" />
    <glyph glyph-name="Delta" unicode="&#x2206;" horiz-adv-x="1395" 
d="M569 1473h256l574 -1473h-1403zM698 1196l-379 -983h756z" />
    <glyph glyph-name="product" unicode="&#x220f;" horiz-adv-x="1579" 
d="M154 1473h1267v-1866h-286v1622h-695v-1622h-286v1866z" />
    <glyph glyph-name="summation" unicode="&#x2211;" horiz-adv-x="1421" 
d="M61 1473h1280v-226h-921l647 -684l-661 -729h974v-227h-1347v160l712 786l-684 719v201z" />
    <glyph glyph-name="minus" unicode="&#x2212;" horiz-adv-x="1706" 
d="M254 696h1198v-170h-1198v170z" />
    <glyph glyph-name="fraction" unicode="&#x2215;" horiz-adv-x="276" 
d="M-276 0l653 1446h176l-653 -1446h-176z" />
    <glyph glyph-name="periodcentered" unicode="&#x2219;" horiz-adv-x="440" 
d="M92 742q0 52 38 90t90 38t90 -38t38 -91t-37.5 -91t-90.5 -38t-90.5 39t-37.5 91z" />
    <glyph glyph-name="radical" unicode="&#x221a;" horiz-adv-x="1323" 
d="M1325 1675v-110h-108l-594 -1606h-82l-316 872l-131 -49l-28 95l305 108l247 -688l510 1378h197z" />
    <glyph glyph-name="infinity" unicode="&#x221e;" horiz-adv-x="1706" 
d="M541 211q-137 0 -232.5 114.5t-95.5 288.5t85 285t220 111q93 0 168.5 -60t157.5 -200q71 139 149.5 200.5t194.5 61.5t211.5 -116t95.5 -289t-84.5 -283.5t-220.5 -110.5q-92 0 -166.5 57.5t-161.5 200.5q-71 -135 -148.5 -197.5t-172.5 -62.5zM524 827
q-98 0 -159.5 -61.5t-61.5 -157.5t56.5 -158.5t138.5 -62.5t146.5 62.5t135.5 212.5q-94 165 -256 165zM1405 614q0 96 -56.5 159t-138.5 63t-146 -63.5t-136 -213.5q91 -164 256 -164q97 0 159 61.5t62 157.5z" />
    <glyph glyph-name="integral" unicode="&#x222b;" horiz-adv-x="1120" 
d="M324 -258q106 0 122 692q2 81 3 123q13 538 113 766.5t312 228.5q87 0 143 -45t56 -109t-34 -98t-87 -34q-100 0 -123 88q-5 17 -7 51t-25 35q-101 0 -119 -615q-6 -161 -12 -345q-14 -394 -77 -553q-64 -159 -148.5 -228.5t-182.5 -69.5t-153.5 43.5t-55.5 109.5
t35.5 100t87.5 34q92 0 119 -72q6 -16 9 -59t24 -43z" />
    <glyph glyph-name="approxequal" unicode="&#x2248;" horiz-adv-x="1706" 
d="M576 788q-96 0 -183.5 -35t-214.5 -122v184q218 146 387 146q120 0 310 -68t275 -68q166 0 380 154v-184q-206 -142 -389 -142q-88 0 -278.5 67.5t-286.5 67.5zM1141 266q-89 0 -279.5 66.5t-286.5 66.5t-185.5 -36t-211.5 -121v184q217 145 387 145q118 0 309 -67.5
t277 -67.5q157 0 379 156v-186q-205 -140 -389 -140z" />
    <glyph glyph-name="notequal" unicode="&#x2260;" horiz-adv-x="1706" 
d="M1452 897v-162h-403l-197 -250h600v-161h-707l-249 -314l-123 99l170 215h-289v161h393l199 250h-592v162h700l250 315l123 -100l-170 -215h295z" />
    <glyph glyph-name="lessequal" unicode="&#x2264;" horiz-adv-x="1706" 
d="M1446 1223v-176l-889 -287l889 -287v-176l-1186 389v145zM260 178h1186v-166h-1186v166z" />
    <glyph glyph-name="greaterequal" unicode="&#x2265;" horiz-adv-x="1706" 
d="M260 1223l1186 -392v-145l-1186 -389v176l891 287l-891 287v176zM260 178h1188v-166h-1188v166z" />
    <glyph glyph-name="lozenge" unicode="&#x25ca;" horiz-adv-x="1012" 
d="M506 1653l500 -1061l-500 -1069l-500 1069zM506 1409l-385 -817l385 -825l385 825z" />
    <glyph glyph-name="apple" unicode="&#xf000;" horiz-adv-x="1618" 
d="M1272 741q0 -113 60 -200t173 -138q-114 -247 -205 -342.5t-204 -95.5q-50 0 -131.5 33t-124.5 33t-129.5 -33t-138.5 -33t-116 44t-148 158t-139.5 269.5t-55.5 300.5q0 219 125 356.5t323 137.5q68 0 154.5 -34t122.5 -34t123 35t175 35q194 0 337 -164
q-201 -128 -201 -328zM834 1253q0 124 95 229.5t236 131.5q2 -20 2 -62q0 -131 -103.5 -234.5t-203.5 -103.5h-8l-16 2q-2 12 -2 37z" />
    <glyph glyph-name="fi" unicode="&#xf001;" horiz-adv-x="842" 
d="M416 1266q-50 0 -72 -21t-22 -69v-109h127v-166h-127v-901h-199v901h-113v166h113v125q0 254 231 254q59 0 115 -16v-174zM539 0v1067h198v-1067h-198zM539 1247v199h198v-199h-198z" />
    <glyph glyph-name="fl" unicode="&#xf002;" horiz-adv-x="842" 
d="M416 1266q-50 0 -72 -21t-22 -69v-109h127v-166h-127v-901h-199v901h-113v166h113v125q0 254 231 254q59 0 115 -16v-174zM539 0v1446h198v-1446h-198z" />
    </font>
</defs>
</svg>
